# xmcd CD database file
#
# Track frame offsets:
#	150
#	26450
#	44247
#	59345
#	88367
#	116247
#	131635
#	143330
#	158284
#	175202
#
# Disc length: 2684 seconds
#
# Revision: 0
# Processed by: cddbd v1.5.2PL0 Copyright (c) Steve Scherf et al.
# Submitted via: CDex 1.51
#
DISCID=870a7a0a
DTITLE=Latin Jazz Orchestra - Havana Blues
DYEAR=1998
DGENRE=Jazz
TTITLE0=Havana Blues
TTITLE1=The cobra
TTITLE2=Palabras de mujer
TTITLE3=Guajira
TTITLE4=Afrodisia
TTITLE5=Huachinango de Veracruz
TTITLE6=Percussion excursion
TTITLE7=Tres palabras
TTITLE8=Blue mambo
TTITLE9=Where you at?
EXTD=YEAR: 1998
EXTT0=
EXTT1=
EXTT2=
EXTT3=
EXTT4=
EXTT5=
EXTT6=
EXTT7=
EXTT8=
EXTT9=
PLAYORDER=
